#!OML:ASF F:\VICON\USERDATA\INSTALL\rory3\rory3.ASF
:FULLY-SPECIFIED
:DEGREES
126
root -0.14903063980922815 17.18748928892225 29.281063645513406 1.9162907753040488 -0.5488429576636882 -2.330354905279677
lfemur -11.741361203798379 2.6971209253248065 -22.21458744491077
ltibia 46.501987369927626
lfoot -3.3623706403062092 -6.239696027759745
ltoes -6.3607269828739215
rfemur -27.541667967554975 0.3289356904867671 27.57363781171333
rtibia 104.0415285004317
rfoot 1.7205260095631125 -6.029084688968882
rtoes 5.947141598562633
lowerback 15.602814937861611 2.0505101254010314 0.5748076520891761
upperback -0.8075835933863702 2.793924645353355 0.0725143875316363
thorax -9.748434674609104 1.338953785308172 -0.8537666852627961
lowerneck -21.16648915761297 -4.633450827108791 -1.65270004891191
upperneck 12.672896130831715 -6.535554181892624 3.6043036275410447
head 7.52675752583995 -2.8237693438704614 0.7784032688352653
lclavicle 7.933867045691792e-17 -3.510693724107436e-16
lhumerus -40.25971484656232 -19.23211324429908 97.59874261696649
lradius 108.70653426805748
lwrist 33.997495372512674
lhand -25.039969959258794 3.0664013873387668
lfingers 7.12502
lthumb 1.5538827735945075 32.35108054112085
rclavicle 7.933867067676259e-17 -3.51069372245676e-16
rhumerus -50.87665008073939 7.6234620333823075 -96.0178753838588
rradius 109.02204382750715
rwrist -8.092255771184409
rhand -17.274002578618337 38.86932689799183
rfingers 7.12502
rthumb 9.381721517968018 8.329022290464259
127
root -0.1657741027756645 17.17872970159008 29.27328695134021 2.0623514530316323 -0.7161216867658424 -2.3995026861005693
lfemur -11.548318510021913 2.8837244643370386 -21.95524650428523
ltibia 47.94229059475083
lfoot -2.7885988405901316 -6.043351816420094
ltoes -6.666625206294342
rfemur -28.006132024582733 0.5298465227859288 27.735143294061025
rtibia 103.38534428193319
rfoot 2.271897631353762 -5.505787622851559
rtoes 5.588377257641413
lowerback 15.648024391617863 2.066188138019701 0.5639377184862752
upperback -0.8118771021946823 2.8126649378172806 0.1103574377953187
thorax -9.847653723611257 1.357304490434763 -0.8041681064053918
lowerneck -21.445500463436847 -4.576616642141128 -1.6598973893057158
upperneck 12.720446865612809 -6.462943636479342 3.6353533557630326
head 7.592780649049977 -2.7724848284484693 0.7900552421813793
lclavicle 7.933867045175095e-17 -3.510693724146662e-16
lhumerus -40.43520675103527 -19.00963497150085 97.55205742229171
lradius 109.16927393434698
lwrist 34.13027577802894
lhand -24.940290665623156 3.229954332045514
lfingers 7.12502
lthumb 1.5019323664795956 32.24919545217529
rclavicle 7.933867068304367e-17 -3.5106937224072826e-16
rhumerus -50.70603995373239 7.769084185993509 -96.14044839955999
rradius 108.97422691238681
rwrist -8.033126018739786
rhand -17.176646173791298 38.9653246997394
rfingers 7.12502
rthumb 9.489303441668394 8.460230081048891
128
root -0.17690785012216723 17.17264159509198 29.238998917147832 2.1992004900934474 -0.9022844057154547 -2.4395028897128714
lfemur -11.382521700948221 3.074186245965689 -21.728346712344752
ltibia 49.36370308129678
lfoot -2.6374530322922927 -6.343803073984585
ltoes -8.08937464422025
rfemur -28.39097952986839 0.7422648685993902 27.86377826966408
rtibia 102.65578492219129
rfoot 2.715854677921987 -5.216965256915323
rtoes 6.648680083728905
lowerback 15.664372490914362 2.081299370136145 0.5474492528359103
upperback -0.7970394057288692 2.8292124935946377 0.14342455430712087
thorax -9.933887075098067 1.3630276234745697 -0.7719251253360653
lowerneck -21.711681279063324 -4.509545569924823 -1.6650282046228437
upperneck 12.731044532831731 -6.361345564542086 3.6513954680369456
head 7.644678855732757 -2.7124621612990025 0.7959365382704991
lclavicle 7.933867045171466e-17 -3.510693724146011e-16
lhumerus -40.684723433532994 -18.711726416170144 97.51913439414729
lradius 109.55293984201968
lwrist 34.20589007242134
lhand -25.047081458271336 2.970952511756659
lfingers 7.12502
lthumb 1.4840895533624088 32.15303297592358
rclavicle 7.933867068781668e-17 -3.5106937223693463e-16
rhumerus -50.59656311711199 7.900583458225097 -96.2430803921146
rradius 108.9363397977446
rwrist -8.28764579331608
rhand -17.123940092957955 39.023706472906376
rfingers 7.12502
rthumb 9.59554262135326 8.62020777165216
129
root -0.18142513073786298 17.174400558892437 29.171718007082696 2.3335639008258964 -1.0684923753964763 -2.4611234148918113
lfemur -11.235228787657173 3.2371674772556176 -21.53195712917472
ltibia 50.74591612613867
lfoot -2.7436884101951677 -6.814408946676871
ltoes -8.47312469927029
rfemur -28.653736419349542 0.9330742806429512 27.983568432416284
rtibia 101.83876975010168
rfoot 3.1308520311578554 -4.992151894007552
rtoes 7.908680969790776
lowerback 15.655069113612903 2.0812583062008208 0.5301634040651586
upperback -0.7880328117930325 2.826577513470801 0.1686965065007917
thorax -9.988908247741138 1.360953074190539 -0.7417798682531889
lowerneck -21.91452913512363 -4.433445204007324 -1.6582516081000802
upperneck 12.735439638281571 -6.2555917855932766 3.660137419097085
head 7.668910559361518 -2.65458775685418 0.8038680251254919
lclavicle 7.933867045330771e-17 -3.5106937241337116e-16
lhumerus -41.02279642477598 -18.361827378557038 97.50383102481209
lradius 109.85316681178134
lwrist 34.29634172832027
lhand -25.03402460666029 2.880582339831572
lfingers 7.12502
lthumb 1.5905858827470527 32.10705216539868
rclavicle 7.933867069043546e-17 -3.5106937223491347e-16
rhumerus -50.5565302384042 8.005118189868703 -96.33829471195277
rradius 108.91145800895322
rwrist -8.514888478897978
rhand -17.03039900825923 39.16958346198973
rfingers 7.12502
rthumb 9.65847726981665 8.792264424966708
130
root -0.189020597162611 17.189521966907275 28.94497586778939 2.4742948801620814 -1.245046150040347 -2.550653048653139
lfemur -11.154940142019335 3.391276862670749 -21.24368824147882
ltibia 52.03195616222518
lfoot -2.258258350412559 -7.004723476918228
ltoes -6.98345445600593
rfemur -28.78629540018988 1.15171407129687 28.200600578809677
rtibia 100.88399547959392
rfoot 3.2832307425193705 -4.888189805101602
rtoes 7.296119032643151
lowerback 15.646291628769298 2.0792553608929603 0.5773342191538996
upperback -0.812184878551382 2.836482293418568 0.2181050918857539
thorax -10.027649970960153 1.377926897040103 -0.7025497693511835
lowerneck -22.01633590858682 -4.3650633044341305 -1.6450375413150748
upperneck 12.729323598032025 -6.1653903825192025 3.662265803326238
head 7.6821148786421745 -2.607618232394797 0.8114292490463075
lclavicle 7.933867045135584e-17 -3.510693724147917e-16
lhumerus -41.36687918226388 -17.99680988791991 97.49886932588106
lradius 110.07460397069346
lwrist 34.36752095103319
lhand -25.043441219070292 2.7780314614787502
lfingers 7.12502
lthumb 1.6970517445569397 32.19355136657501
rclavicle 7.933867069074584e-17 -3.5106937223457657e-16
rhumerus -50.59054758221413 8.074448460343806 -96.41897749095206
rradius 108.9014265209269
rwrist -8.756823018551469
rhand -17.04587134869161 39.23989845950264
rfingers 7.12502
rthumb 9.684249772172619 8.936073910172
